<svg width="75" height="75" viewBox="0 0 75 75" fill="none" xmlns="http://www.w3.org/2000/svg">
<path d="M0 9.375C0 4.19733 4.95423 0 11.0656 0H63.9344C70.0458 0 75 4.19733 75 9.375V65.625C75 70.8027 70.0458 75 63.9344 75H11.0656C4.95423 75 0 70.8027 0 65.625V9.375Z" fill="#3768E4"/>
<g clip-path="url(#clip0_7_8)">
<g filter="url(#filter0_d_7_8)">
<path d="M12.25 51.5L13.375 47H25.75L24.625 51.5H12.25ZM16.75 42.5L17.875 38H32.5L31.375 42.5H16.75ZM51.7938 56L52.9188 47L54.55 33.5L55.1125 29.0563L51.7938 56ZM23.5 60.5C22.2625 60.5 21.2031 60.0594 20.3219 59.1781C19.4406 58.2969 19 57.2375 19 56H51.7938L55.1125 29.0563H48.925L48.3062 33.8375C48.2312 34.475 47.95 34.9719 47.4625 35.3281C46.975 35.6844 46.4125 35.825 45.775 35.75C45.1375 35.675 44.6406 35.4031 44.2844 34.9344C43.9281 34.4656 43.7875 33.9125 43.8625 33.275L44.3688 29.0563H35.425L34.8063 33.7812C34.7313 34.4187 34.45 34.925 33.9625 35.3C33.475 35.675 32.9125 35.825 32.275 35.75C31.6375 35.675 31.1313 35.3938 30.7563 34.9062C30.3813 34.4187 30.2313 33.8562 30.3063 33.2188L30.8125 29.0563H22.375C22.525 27.7813 23.0125 26.7031 23.8375 25.8219C24.6625 24.9406 25.675 24.5 26.875 24.5H31.375C31.675 21.6875 32.6406 19.4844 34.2719 17.8906C35.9031 16.2969 38.125 15.5 40.9375 15.5C43.3375 15.5 45.3344 16.3906 46.9281 18.1719C48.5219 19.9531 49.3 22.0625 49.2625 24.5H55C56.35 24.5375 57.475 25.0625 58.375 26.075C59.275 27.0875 59.6313 28.2688 59.4438 29.6188L56.0688 56.6187C55.9188 57.7437 55.4219 58.6719 54.5781 59.4031C53.7344 60.1344 52.75 60.5 51.625 60.5H23.5ZM35.875 24.5H44.8188C44.8563 23.2625 44.4344 22.2031 43.5531 21.3219C42.6719 20.4406 41.6125 20 40.375 20C39.0625 20 38.0219 20.4031 37.2531 21.2094C36.4844 22.0156 36.025 23.1125 35.875 24.5Z" fill="#F59E0B"/>
</g>
</g>
<defs>
<filter id="filter0_d_7_8" x="8.25" y="13.5" width="55.2422" height="53" filterUnits="userSpaceOnUse" color-interpolation-filters="sRGB">
<feFlood flood-opacity="0" result="BackgroundImageFix"/>
<feColorMatrix in="SourceAlpha" type="matrix" values="0 0 0 0 0 0 0 0 0 0 0 0 0 0 0 0 0 0 127 0" result="hardAlpha"/>
<feOffset dy="2"/>
<feGaussianBlur stdDeviation="2"/>
<feComposite in2="hardAlpha" operator="out"/>
<feColorMatrix type="matrix" values="0 0 0 0 0.0183475 0 0 0 0 0.000316611 0 0 0 0 0.216688 0 0 0 0.25 0"/>
<feBlend mode="normal" in2="BackgroundImageFix" result="effect1_dropShadow_7_8"/>
<feBlend mode="normal" in="SourceGraphic" in2="effect1_dropShadow_7_8" result="shape"/>
</filter>
<clipPath id="clip0_7_8">
<rect width="54" height="54" fill="white" transform="translate(10 11)"/>
</clipPath>
</defs>
</svg>
